<svg xmlns="http://www.w3.org/2000/svg" xmlns:xlink="http://www.w3.org/1999/xlink" width="1080" zoomAndPan="magnify" viewBox="0 0 810 1012.49997" height="1350" preserveAspectRatio="xMidYMid meet" version="1.0"><defs><clipPath id="b47b864195"><path d="M 131.289062 491 L 676 491 L 676 521 L 131.289062 521 Z M 131.289062 491 " clip-rule="nonzero"/></clipPath></defs><g clip-path="url(#b47b864195)"><path fill="#c49c94" d="M 669.929688 492.710938 C 600.28125 490.914062 530.554688 490.953125 460.910156 492.964844 C 390.933594 494.984375 321.035156 498.863281 251.265625 504.636719 C 231.910156 506.238281 212.609375 508.304688 193.3125 510.503906 C 183.722656 511.605469 174.160156 512.960938 164.59375 514.261719 C 154.007812 515.703125 143.425781 517 132.996094 519.300781 C 132.316406 519.453125 131.277344 520.886719 132.523438 520.898438 C 150.148438 521.070312 167.9375 518.984375 185.535156 517.871094 C 203.332031 516.742188 221.148438 515.394531 238.925781 513.988281 C 274.160156 511.207031 309.4375 508.957031 344.734375 507.164062 C 414.671875 503.617188 484.695312 502.042969 554.722656 502.3125 C 594.113281 502.464844 633.488281 503.351562 672.851562 504.765625 C 678.671875 504.972656 675.199219 492.847656 669.929688 492.710938 " fill-opacity="1" fill-rule="nonzero"/></g></svg>